SplineFontDB: 3.0
FontName: Forsythe
FullName: Forsythe
FamilyName: Forsythe
Weight: Medium
Copyright: Copyright (c) 2012, Tristen Brown <tristen.brown@gmail.com>, with Reserved Font Name: 'Forsyhe'.\n\nThis Font Software is licensed under the SIL Open Font License, Version 1.0.\nThe license available with a FAQ at:\nhttp://scripts.sil.org/OFL\n\nSeptember 2012
Version: 001.000
ItalicAngle: 0
UnderlinePosition: -100
UnderlineWidth: 50
Ascent: 800
Descent: 200
sfntRevision: 0x00010000
LayerCount: 2
Layer: 0 0 "Back"  1
Layer: 1 0 "Fore"  0
XUID: [1021 562 2126814528 2299898]
FSType: 0
OS2Version: 4
OS2_WeightWidthSlopeOnly: 0
OS2_UseTypoMetrics: 1
CreationTime: 1347737418
ModificationTime: 1348783140
PfmFamily: 17
TTFWeight: 500
TTFWidth: 5
LineGap: 90
VLineGap: 0
Panose: 2 0 6 3 0 0 0 0 0 0
OS2TypoAscent: 800
OS2TypoAOffset: 0
OS2TypoDescent: -200
OS2TypoDOffset: 0
OS2TypoLinegap: 90
OS2WinAscent: 600
OS2WinAOffset: 0
OS2WinDescent: 200
OS2WinDOffset: 0
HheadAscent: 600
HheadAOffset: 0
HheadDescent: -200
HheadDOffset: 0
OS2SubXSize: 650
OS2SubYSize: 700
OS2SubXOff: 0
OS2SubYOff: 140
OS2SupXSize: 650
OS2SupYSize: 700
OS2SupXOff: 0
OS2SupYOff: 480
OS2StrikeYSize: 49
OS2StrikeYPos: 258
OS2Vendor: 'PfEd'
OS2CodePages: 00000001.00000000
OS2UnicodeRanges: 00000001.00000000.00000000.00000000
Lookup: 258 0 0 "'kern' Horizontal Kerning in Latin lookup 0"  {"'kern' Horizontal Kerning in Latin lookup 0 subtable"  } ['kern' ('latn' <'dflt' > ) ]
MarkAttachClasses: 1
DEI: 91125
LangName: 1033 "" "" "" "FontForge 2.0 : Forsythe : 20-9-2012" 
Encoding: UnicodeBmp
UnicodeInterp: none
NameList: Adobe Glyph List
DisplaySize: -24
AntiAlias: 1
FitToEm: 1
WinInfo: 38 38 11
BeginPrivate: 6
BlueValues 19 [-200 -200 600 600]
BlueShift 1 0
StdHW 4 [96]
StdVW 4 [96]
StemSnapH 36 [80 88 94 95 96 122 144 176 200 212]
StemSnapV 4 [96]
EndPrivate
BeginChars: 65537 96

StartChar: .notdef
Encoding: 65536 -1 0
Width: 500
Flags: MW
HStem: 0 50<100 400 100 450> 483 50<100 400 100 100>
VStem: 50 50<50 50 50 483> 400 50<50 483 483 483>
LayerCount: 2
Fore
SplineSet
50 0 m 1
 50 533 l 1
 450 533 l 1
 450 0 l 1
 50 0 l 1
100 50 m 1
 400 50 l 1
 400 483 l 1
 100 483 l 1
 100 50 l 1
EndSplineSet
Validated: 1
EndChar

StartChar: exclam
Encoding: 33 33 2
Width: 156
Flags: HMW
HStem: -200 96<30 126 30 126> 580 20G<30 126 126 126> 580 20G<30 126 126 126>
VStem: 30 96<-200 -104 -200 -104 -56 600>
LayerCount: 2
Fore
SplineSet
30 600 m 1xd0
 126 600 l 1
 126 -56 l 1
 30 -56 l 1
 30 600 l 1xd0
30 -104 m 1
 126 -104 l 1
 126 -200 l 1
 30 -200 l 1
 30 -104 l 1
EndSplineSet
Validated: 1
EndChar

StartChar: quotedbl
Encoding: 34 34 3
Width: 332
Flags: HMW
HStem: 400 200<30 138.812 30 138.812 30 193.188 193.188 302>
VStem: 30 108.812<400 600 400 600> 193.188 108.812<400 600 400 600>
LayerCount: 2
Fore
SplineSet
30 600 m 1
 138.8125 600 l 1
 138.8125 400 l 1
 30 400 l 1
 30 600 l 1
193.1875 600 m 1
 302 600 l 1
 302 400 l 1
 193.1875 400 l 1
 193.1875 600 l 1
EndSplineSet
Validated: 1
EndChar

StartChar: numbersign
Encoding: 35 35 4
Width: 428
Flags: HMW
HStem: -200 21G<78 174 78 78 254 350 254 254> -200 21G<78 174 78 78 254 350 254 254> 56 96<30 78 30 78 174 254 350 398> 248 96<30 78 30 78 174 254 350 398> 580 20G<78 174 174 174 254 350 350 350> 580 20G<78 174 174 174 254 350 350 350>
VStem: 78 96<-200 56 -200 56 152 248 344 600> 254 96<-200 56 -200 56 152 248 344 600>
LayerCount: 2
Fore
SplineSet
78 600 m 1xbb
 174 600 l 1
 174 344 l 1
 254 344 l 1
 254 600 l 1
 350 600 l 1
 350 344 l 1
 398 344 l 1
 398 248 l 1
 350 248 l 1
 350 152 l 1
 398 152 l 1
 398 56 l 1
 350 56 l 1
 350 -200 l 1
 254 -200 l 1
 254 56 l 1
 174 56 l 1
 174 -200 l 1
 78 -200 l 1
 78 56 l 1
 30 56 l 1
 30 152 l 1
 78 152 l 1
 78 248 l 1
 30 248 l 1
 30 344 l 1
 78 344 l 1
 78 600 l 1xbb
174 248 m 1
 174 152 l 1
 254 152 l 1
 254 248 l 1
 174 248 l 1
EndSplineSet
Validated: 1
EndChar

StartChar: dollar
Encoding: 36 36 5
Width: 348
Flags: HMW
HStem: -200 176<155.812 190 190 206 155.812 222 126 190> 152 96<78.0176 254 158 190 190 190.006> 424 176<142 158 158 190 190 190.045>
VStem: 30 96<-200 -56 264 280 280 344 344 392> 126 96<-200 -120 -200 -120 8 40 360 392 520 600> 222 95.5<-200 184 8 40 40 88 88 120 120 136>
CounterMasks: 1 e0
LayerCount: 2
Fore
SplineSet
126 600 m 1xe8
 222 600 l 1
 222 520 l 1xe8
 254 520 l 1
 285.010742188 512.247070312 317.5 488 317.5 456 c 2
 318 360 l 1
 222 360 l 1
 222 394.78125 l 2
 221.997070312 423.993164062 222 424 190.044921875 424 c 2
 190 424 l 1
 158 424 l 2
 126 424 126 424 126 392 c 2
 126 344 l 1
 126 280 l 2
 126 248 126.038085938 248 158 248 c 2
 254 248 l 2
 285.96484375 248 317.5 216 317.5 184 c 2
 317.5 -56 l 2xf4
 317.497070312 -88 285.96484375 -120 254 -120 c 2
 222 -120 l 1
 222 -200 l 1
 126 -200 l 1
 126 -120 l 1xe8
 94 -120 l 2
 62.03515625 -120 30 -88 30 -56 c 2
 30.5 40 l 1
 126 40 l 1
 126 8 l 2
 126 -24 126 -24 155.8125 -24 c 2
 190 -24 l 2
 222 -24 222 -24 222 8 c 2
 222 40 l 1
 222 88 l 1
 222 120 l 2
 222 151.999023438 221.96484375 152 190.005859375 152 c 2
 190 152 l 1
 94 152 l 2
 62.03515625 152 30 184 30 216 c 2
 30 456 l 2xf4
 30 488 62.03515625 520 94 520 c 2
 126 520 l 1
 126 600 l 1xe8
EndSplineSet
Validated: 1
EndChar

StartChar: percent
Encoding: 37 37 6
Width: 332
Flags: HMW
HStem: -200 96<30 302 206 302 206 302> 504 96<30 126 30 126>
VStem: 30 96<-200 -200 504 600> 206 96<-200 -104 -200 -104>
LayerCount: 2
Fore
SplineSet
30 600 m 1
 126 600 l 1
 126 504 l 1
 30 504 l 1
 30 600 l 1
206 600 m 1
 302 600 l 1
 126 -200 l 1
 30 -200 l 1
 206 600 l 1
206 -104 m 1
 302 -104 l 1
 302 -200 l 1
 206 -200 l 1
 206 -104 l 1
EndSplineSet
Validated: 1
EndChar

StartChar: ampersand
Encoding: 38 38 7
Width: 380
Flags: HMW
HStem: -200 96<78 158 157.89 158 158 174 174 190 157.89 238> 152 96<30 30 126 206 302 350> 504 96<141.5 157 157 254>
VStem: 30 96<-87.0371 -70.0938 -70.0938 152 248 472> 206 96<-72 152 248 296>
CounterMasks: 1 e0
LayerCount: 2
Fore
SplineSet
94 600 m 2
 254 600 l 1
 254 504 l 1
 157 504 l 2
 126 504 126 504 126 472 c 2
 126 248 l 1
 206 248 l 1
 206 296 l 1
 302 296 l 1
 302 248 l 1
 350 248 l 1
 350 152 l 1
 302 152 l 1
 302 -136 l 2
 302 -168 270 -200 238 -200 c 2
 94 -200 l 2
 62 -200 30 -168 30 -136 c 2
 30 152 l 1
 94 184 l 1
 30 248 l 1
 30 536 l 2
 30 568 62 600 94 600 c 2
126 152 m 1
 126 -70.09375 l 2
 126 -103.98046875 126 -104 157.889648438 -104 c 2
 158 -104 l 1
 174 -104 l 2
 206 -104 206 -104 206 -72 c 2
 206 152 l 1
 126 152 l 1
EndSplineSet
Validated: 1
EndChar

StartChar: quotesingle
Encoding: 39 39 8
Width: 168
Flags: HMW
HStem: 400 200<30 138.812 30 138.812>
VStem: 30 108.812<400 600 400 600>
LayerCount: 2
Fore
SplineSet
30 600 m 1
 138.8125 600 l 1
 138.8125 400 l 1
 30 400 l 1
 30 600 l 1
EndSplineSet
Validated: 1
EndChar

StartChar: parenleft
Encoding: 40 40 9
Width: 252
Flags: HMW
HStem: -200 96<78 222 158.094 222 158.094 222> 504 96<141.644 157.046 157.046 157.563 157.563 222.001>
VStem: 30 96<-88 -72 -72 472 472 472.713> 30 192<-136 -104 -200 539>
LayerCount: 2
Fore
SplineSet
94 600 m 2xd0
 222.000976562 600 l 1
 222.000976562 504 l 1xd0
 157.563476562 504 l 1
 157.045898438 504 l 2
 126.2421875 504 126 503.828125 126 472.712890625 c 2
 126 472 l 1
 126 -72 l 2xe0
 126 -104 126.013671875 -104 158.09375 -104 c 2
 222 -104 l 1
 222 -200 l 1
 94 -200 l 2
 62 -200 30 -168 30 -136 c 2
 30 539 l 1
 30 539.002929688 l 2
 30 568.001953125 62.0009765625 600 94 600 c 2xd0
EndSplineSet
Validated: 1
EndChar

StartChar: parenright
Encoding: 41 41 10
Width: 252
Flags: HMW
HStem: -200 96<30 94 94 109.876 30 158 30 94> 503.999 96<30 30>
VStem: 30 191.998<539 539.003 539 599.999 539 599.999> 125.998 96<-70.501 539.003 470.436 539.003 471.21 539.003>
LayerCount: 2
Fore
SplineSet
158 600 m 2xe0
 189.999023438 600 221.998046875 568.001953125 221.998046875 539.002929688 c 2
 221.998046875 539 l 1
 222 -136 l 2
 222 -168 190 -200 158 -200 c 2
 30 -200 l 1
 30 -104 l 1xe0
 94 -104 l 2
 125.751953125 -104 125.998046875 -104 125.998046875 -71.2744140625 c 2
 125.998046875 -70.5009765625 l 1
 125.998046875 470.435546875 l 1xd0
 125.998046875 471.209960938 l 2
 125.998046875 504 125.751953125 504 94 504 c 2
 30 503.999023438 l 1
 30 599.999023438 l 1
 158 600 l 2xe0
EndSplineSet
Validated: 1
EndChar

StartChar: asterisk
Encoding: 42 42 11
Width: 284
Flags: HMW
HStem: 376 224<110 175 110 175>
VStem: 110 65<376 440 376 440>
LayerCount: 2
Fore
SplineSet
110 600 m 1
 175 600 l 1
 174 536 l 1
 222 568 l 1
 254 520 l 1
 206 488 l 1
 254 456 l 1
 222 408 l 1
 174 440 l 1
 175 376 l 1
 110 376 l 1
 110 440 l 1
 62 408 l 1
 30 456 l 1
 78 488 l 1
 30 520 l 1
 62 568 l 1
 110 536 l 1
 110 600 l 1
EndSplineSet
Validated: 1
EndChar

StartChar: plus
Encoding: 43 43 12
Width: 412
Flags: HMW
HStem: 160 88<30 162 30 162 250 382>
VStem: 162 88<28 160 28 160 248 380>
LayerCount: 2
Fore
SplineSet
162 380 m 1
 250 380 l 1
 250 248 l 1
 382 248 l 1
 382 160 l 1
 250 160 l 1
 250 28 l 1
 162 28 l 1
 162 160 l 1
 30 160 l 1
 30 248 l 1
 162 248 l 1
 162 380 l 1
EndSplineSet
Validated: 1
EndChar

StartChar: comma
Encoding: 44 44 13
Width: 204
Flags: HMW
HStem: -200 144
VStem: 30 144<-164 -92 -92 -92>
LayerCount: 2
Fore
SplineSet
174 -56 m 1
 174 -164 l 1
 30 -200 l 1
 30 -92 l 1
 174 -56 l 1
EndSplineSet
Validated: 1
EndChar

StartChar: hyphen
Encoding: 45 45 14
Width: 332
Flags: HMW
HStem: 156 96<30 302 30 302>
VStem: 30 272<156 252 156 252>
LayerCount: 2
Fore
SplineSet
30 252 m 1
 302 252 l 1
 302 156 l 1
 30 156 l 1
 30 252 l 1
EndSplineSet
Validated: 1
EndChar

StartChar: period
Encoding: 46 46 15
Width: 156
Flags: HMW
HStem: -200 96<30 126 30 126>
VStem: 30 96<-200 -104 -200 -104>
LayerCount: 2
Fore
SplineSet
30 -104 m 1
 126 -104 l 1
 126 -200 l 1
 30 -200 l 1
 30 -104 l 1
EndSplineSet
Validated: 1
EndChar

StartChar: slash
Encoding: 47 47 16
Width: 332
Flags: HMW
HStem: -200 21G<30 126 30 30> -200 21G<30 126 30 30> 580 20G<206 302 302 302> 580 20G<206 302 302 302>
VStem: 30 272
LayerCount: 2
Fore
SplineSet
206 600 m 1xa8
 302 600 l 1
 126 -200 l 1
 30 -200 l 1
 206 600 l 1xa8
EndSplineSet
Validated: 1
EndChar

StartChar: zero
Encoding: 48 48 17
Width: 332
Flags: HMW
HStem: -200 96 504.003 95.9965
VStem: 30 96<-87.998 -71.999 -71.999 472.001> 206 96<-71.999 472.001 472.001 472.517>
LayerCount: 2
Fore
SplineSet
94 600 m 2
 174 600 l 1
 238 600 l 2
 270.025390625 600 302 568 302 536 c 2
 302 -136 l 2
 302 -168 270.025390625 -200 238 -200 c 2
 174 -200 l 1
 94 -200 l 2
 61.974609375 -200 30 -168 30 -136 c 2
 30 536 l 2
 30 568 61.974609375 600 94 600 c 2
152.28125 504 m 0
 126.442382812 503.887695312 125.999023438 502.125976562 125.999023438 474.986328125 c 0
 125.999023438 474.0234375 126 473.028320312 126 472.000976562 c 2
 126 -71.9990234375 l 2
 126 -103.997070312 126.209960938 -103.999023438 157.98828125 -103.999023438 c 2
 158 -103.999023438 l 1
 174 -103.999023438 l 1
 174.01171875 -103.999023438 l 2
 205.791992188 -103.999023438 206 -103.997070312 206 -71.9990234375 c 2
 206 472.000976562 l 2
 206 473.032226562 206.000976562 474.030273438 206.000976562 474.99609375 c 0
 206.000976562 503.76953125 205.500976562 504 174.739257812 504 c 2
 174 504 l 1
 158 504 l 2
 156.643554688 504 155.346679688 504.00390625 154.104492188 504.00390625 c 0
 153.483398438 504.00390625 152.875976562 504.002929688 152.28125 504 c 0
EndSplineSet
Validated: 1
EndChar

StartChar: one
Encoding: 49 49 18
Width: 204
Flags: HMW
HStem: -200 21G<78 174 78 78> -200 21G<78 174 78 78> 504 96<30 78 30 78>
VStem: 30 144<504 600 -200 600> 78 96<-200 504 504 504 -200 600>
LayerCount: 2
Fore
SplineSet
30 600 m 1xb0
 78 600 l 1xa8
 174 600 l 1xb0
 174 -200 l 1
 78 -200 l 1
 78 504 l 1xa8
 30 504 l 1
 30 600 l 1xb0
EndSplineSet
Validated: 1
EndChar

StartChar: two
Encoding: 50 50 19
Width: 300
Flags: HMW
HStem: -200 96<78.0527 270 158.031 269.75> 152 96<142.053 157.308 93.9062 158.031 93.9062 206.219> 504 96<30 141.969 30 206.094 141.969 141.984>
VStem: 30.3125 95.5625<-128 -64> 173.974 96.0264
CounterMasks: 1 e0
LayerCount: 2
Fore
SplineSet
30 600 m 1
 206.09375 600 l 2
 238.05078125 600 270 568 270 536 c 2
 270 208 l 2
 270 176 238.17578125 152 206.21875 152 c 2
 158.03125 152 l 2
 126.07421875 152 126.078125 152 126.03125 120 c 2
 125.875 -64 l 2
 126.03515625 -104 126.071289062 -104 158.03125 -104 c 2
 270 -104 l 1
 269.75 -200 l 1
 94.03125 -200 l 2
 62.07421875 -200 30.345703125 -160 30.3125 -128 c 2
 30 184 l 2
 30 216 61.94921875 248 93.90625 248 c 2
 141.96875 248 l 2
 172.646484375 248 173.973632812 248 173.973632812 276.3203125 c 0
 173.973632812 277.497070312 173.971679688 278.72265625 173.96875 280 c 2
 173.75 384 l 1
 173.75 480 l 1
 173.75 480.7578125 l 2
 173.75 503.998046875 173.58203125 504 141.984375 504 c 2
 141.96875 504 l 1
 30 504 l 1
 30 600 l 1
EndSplineSet
Validated: 1
EndChar

StartChar: three
Encoding: 51 51 20
Width: 300
Flags: HMW
HStem: -200 96<30 174 30 206 30 174> 152 96<30 174 30 174> 504 96<30 174 30 206>
VStem: 30 240<-152 -136 -136 -104 -104 -104 504 536> 174 96<-104 152 248 504 504 504>
CounterMasks: 1 e0
LayerCount: 2
Fore
SplineSet
30 600 m 1xf0
 206 600 l 2
 238 600 270 568 270 536 c 2xf0
 270 248 l 1
 206 184 l 1
 270 152 l 1xe8
 270 -136 l 2
 270 -168 238 -200 206 -200 c 2
 30 -200 l 1
 30 -104 l 1xf0
 174 -104 l 1
 174 152 l 1xe8
 30 152 l 1
 30 248 l 1xf0
 174 248 l 1
 174 504 l 1xe8
 30 504 l 1
 30 600 l 1xf0
EndSplineSet
Validated: 1
EndChar

StartChar: four
Encoding: 52 52 21
Width: 332
Flags: HMW
HStem: -200 21G<206 302 206 206> -200 21G<206 302 206 206> 152 96<126 206 126 206> 580 20G<30 126 126 126 206 302 302 302> 580 20G<30 126 126 126 206 302 302 302>
VStem: 30 96<248 600 248 600 248 600> 206 96<-200 152 152 152 248 600 -200 600>
LayerCount: 2
Fore
SplineSet
30 600 m 1xb6
 126 600 l 1
 126 248 l 1
 206 248 l 1
 206 600 l 1
 302 600 l 1
 302 -200 l 1
 206 -200 l 1
 206 152 l 1
 30 152 l 1
 30 600 l 1xb6
EndSplineSet
Validated: 1
EndChar

StartChar: five
Encoding: 53 53 22
Width: 300
Flags: HMW
HStem: -200 96<30 142.156 142.156 158.111 30 205.812 30 142.156> 152 96<77.9551 205.812 93.9375 205.812 142.156 205.812> 504 96<126.281 270 126.281 126.281>
VStem: 30 96.2812<264 280 280 376 376 504> 174.094 95.6562<-72.1641 -72 -72 -40 -40 56 56 120 120 120.164 120.164 136.082>
CounterMasks: 1 e0
LayerCount: 2
Fore
SplineSet
30 600 m 1
 270 600 l 1
 270 504 l 1
 126.28125 504 l 1
 126.28125 376 l 1
 126.28125 280 l 2
 126.28125 248 126.288085938 248 158.25 248 c 2
 205.8125 248 l 2
 237.77734375 248 269.75 216 269.75 184 c 2
 269.75 -136 l 2
 269.75 -168 237.77734375 -200 205.8125 -200 c 2
 30 -200 l 1
 30 -104 l 1
 142.15625 -104 l 2
 174.06640625 -104 174.09375 -104 174.09375 -72.1640625 c 2
 174.09375 -72 l 1
 174.09375 -40 l 1
 174.09375 56 l 1
 174.09375 120 l 1
 174.09375 120.1640625 l 2
 174.09375 151.999023438 174.06640625 152 142.162109375 152 c 2
 142.15625 152 l 1
 93.9375 152 l 2
 61.97265625 152 30 184 30 216 c 2
 30 600 l 1
EndSplineSet
Validated: 1
EndChar

StartChar: six
Encoding: 54 54 23
Width: 332
Flags: HMW
HStem: -200 96<78 157.938 157.414 157.938 157.938 173.907 173.907 189.884 157.414 238.031> 152.005 95.9952 580 20G<30 125.719 125.719 125.719> 580 20G<30 125.719 125.719 125.719>
VStem: 30 95.9375 205.875 96.125
LayerCount: 2
Fore
SplineSet
30 600 m 1xec
 125.71875 600 l 1
 126 248 l 1
 238 248 l 2
 270 248 302 216 302 184 c 2
 302 -136 l 2
 302 -168 270.015625 -200 238.03125 -200 c 2
 94 -200 l 2
 62 -200 30 -168 30 -136 c 2
 30 600 l 1xec
152.3125 152 m 0
 125.958984375 151.840820312 125.938476562 149.588867188 125.938476562 119 c 2
 125.938476562 -72 l 2
 125.938476562 -103.825195312 125.954101562 -104 157.4140625 -104 c 2
 157.938476562 -104 l 1
 173.907226562 -104 l 2
 205.860351562 -104 205.875976562 -104 205.875976562 -72.09375 c 2
 205.875976562 -72 l 1
 205.875976562 121 l 1
 205.875976562 121.965820312 l 2
 205.875976562 151.999023438 205.709960938 152 174.000976562 152 c 2
 157.938476562 152 l 2
 156.60546875 152 155.330078125 152.004882812 154.107421875 152.004882812 c 0
 153.49609375 152.004882812 152.8984375 152.00390625 152.3125 152 c 0
EndSplineSet
Validated: 1
EndChar

StartChar: seven
Encoding: 55 55 24
Width: 326
Flags: HMW
HStem: -200 21G<202.562 296.656 202.562 202.562> -200 21G<202.562 296.656 202.562 202.562> 505.875 94.125<30 202.562 30 296.656>
VStem: 202.562 94.0938<-200 505.875 505.875 505.875>
LayerCount: 2
Fore
SplineSet
30 600 m 1xb0
 296.65625 600 l 1
 296.65625 -200 l 1
 202.5625 -200 l 1
 202.5625 505.875 l 1
 30 505.875 l 1
 30 600 l 1xb0
EndSplineSet
Validated: 1
EndChar

StartChar: eight
Encoding: 56 56 25
Width: 332
Flags: HMW
HStem: -200 96 152.003 95.9965 504.003 95.9965
VStem: 30 96<264.686 281 281 472> 206 96
LayerCount: 2
Fore
SplineSet
94 600 m 2
 238 600 l 2
 269.993164062 600 302 568 302 536 c 2
 301.5 248 l 1
 237.5 184 l 1
 302 152 l 1
 302 -136 l 2
 302 -168 269.993164062 -200 238 -200 c 2
 94 -200 l 2
 62 -200 30 -168 30 -136 c 2
 30 152 l 1
 94 184 l 1
 30 248 l 1
 30 536 l 2
 30.8876953125 567.987304688 62 600 94 600 c 2
152.3125 504 m 0
 128.251953125 503.89453125 125.944335938 502.346679688 125.944335938 479.920898438 c 0
 125.944335938 477.526367188 125.970703125 474.893554688 126 472 c 2
 126 281 l 2
 126 248.37109375 126.006835938 248 158 248 c 2
 173.5 248 l 2
 205.407226562 248 206 248 206 279 c 2
 206 472 l 2
 206 504 205.993164062 504 174 504 c 2
 158 504 l 2
 156.653320312 504 155.36328125 504.00390625 154.126953125 504.00390625 c 0
 153.508789062 504.00390625 152.904296875 504.002929688 152.3125 504 c 0
152.311523438 151.999023438 m 0
 126.270507812 151.880859375 125.999023438 150.017578125 125.999023438 120.897460938 c 0
 125.999023438 120.27734375 125.999023438 119.64453125 125.999023438 118.999023438 c 2
 125.999023438 -72.0009765625 l 1
 125.999023438 -73.3359375 l 2
 125.999023438 -104.000976562 126.22265625 -104.000976562 157.999023438 -104.000976562 c 2
 173.999023438 -104.000976562 l 2
 205.993164062 -104.000976562 205.999023438 -104.000976562 205.999023438 -72.0009765625 c 2
 205.999023438 120.999023438 l 2
 205.999023438 151.999023438 205.4921875 151.999023438 173.499023438 151.999023438 c 2
 157.999023438 151.999023438 l 2
 156.65234375 151.999023438 155.361328125 152.002929688 154.125 152.002929688 c 0
 153.506835938 152.002929688 152.90234375 152.001953125 152.311523438 151.999023438 c 0
EndSplineSet
Validated: 1
EndChar

StartChar: nine
Encoding: 57 57 26
Width: 332
Flags: HMW
HStem: -200 21G<206.281 302 206.281 206.281> -200 21G<206.281 302 206.281 206.281> 152 96<78 174.063 158.001 174.063 174.063 174.183 174.183 190.115 158.001 206> 504.003 95.9965
VStem: 30 96.125 206.281 95.7188<-200 536>
LayerCount: 2
Fore
SplineSet
93.96875 600 m 2xbc
 238 600 l 2
 270 600 302 568 302 536 c 2
 302 -200 l 1
 206.28125 -200 l 1
 206 152 l 1
 94 152 l 2
 62 152 30 184 30 216 c 2
 30 536 l 2
 30 568 61.984375 600 93.96875 600 c 2xbc
152.46875 504 m 0
 126.134765625 503.8828125 126.125976562 502.002929688 126.125976562 472.06640625 c 2
 126.125976562 472 l 1
 126.125976562 279 l 1
 126.125976562 278.034179688 l 2
 126.125976562 248.000976562 126.291992188 248 158.000976562 248 c 2
 174.063476562 248 l 1
 174.182617188 248 l 2
 206.047851562 248 206.063476562 248.412109375 206.063476562 281 c 2
 206.063476562 472 l 2
 206.063476562 503.825195312 206.047851562 504 174.587890625 504 c 2
 174.063476562 504 l 1
 158.094726562 504 l 2
 156.76171875 504 155.486328125 504.00390625 154.263671875 504.00390625 c 0
 153.65234375 504.00390625 153.0546875 504.002929688 152.46875 504 c 0
EndSplineSet
Validated: 1
EndChar

StartChar: colon
Encoding: 58 58 27
Width: 156
Flags: W
HStem: -40 176<30 126> 264 176<30 126>
VStem: 30 96<-40 136 264 440>
LayerCount: 2
Fore
SplineSet
30 440 m 1
 126 440 l 1
 126 264 l 1
 30 264 l 1
 30 440 l 1
30 136 m 1
 126 136 l 1
 126 -40 l 1
 30 -40 l 1
 30 136 l 1
EndSplineSet
Validated: 1
EndChar

StartChar: semicolon
Encoding: 59 59 28
Width: 156
Flags: W
HStem: -200 21G<30 126> 264 176<30 126>
VStem: 30 96<-200 136 264 440>
LayerCount: 2
Fore
SplineSet
30 440 m 5
 126 440 l 5
 126 264 l 5
 30 264 l 5
 30 440 l 5
30 136 m 5
 126 136 l 5
 126 -200 l 5
 30 -200 l 5
 30 136 l 5
EndSplineSet
Validated: 1
EndChar

StartChar: less
Encoding: 60 60 29
Width: 380
Flags: HMW
VStem: 30 320<-186 246 -186 246>
LayerCount: 2
Fore
SplineSet
350 582 m 1
 350 438 l 1
 110 198 l 1
 350 -42 l 1
 350 -186 l 1
 30 150 l 1
 30 246 l 1
 350 582 l 1
EndSplineSet
Validated: 1
EndChar

StartChar: equal
Encoding: 61 61 30
Width: 332
Flags: HMW
HStem: 60 96<30 302 30 302> 252 96<30 302 30 302>
VStem: 30 272<60 156 60 156 252 348 60 348>
LayerCount: 2
Fore
SplineSet
30 348 m 1
 302 348 l 1
 302 252 l 1
 30 252 l 1
 30 348 l 1
30 156 m 1
 302 156 l 1
 302 60 l 1
 30 60 l 1
 30 156 l 1
EndSplineSet
Validated: 1
EndChar

StartChar: greater
Encoding: 62 62 31
Width: 380
Flags: HMW
VStem: 30 320<-185 247 -41 247 151 583>
LayerCount: 2
Fore
SplineSet
30 583 m 1
 350 247 l 1
 350 151 l 1
 30 -185 l 1
 30 -41 l 1
 270 199 l 1
 30 439 l 1
 30 583 l 1
EndSplineSet
Validated: 1
EndChar

StartChar: question
Encoding: 63 63 32
Width: 316
Flags: HMW
HStem: -200 96<30 126 30 126> 152 96<142.018 158 158 173.981 94 222.219> 504 96<30 158 30 222.062 158 158.016>
VStem: 30 96<-200 -104 -200 -104 -56 120> 189.781 96.2188<384 480 480 480.796 480.796 492.397>
CounterMasks: 1 e0
LayerCount: 2
Fore
SplineSet
30 600 m 1
 222.0625 600 l 2
 254.02734375 600 286 568 286 536 c 2
 286 208 l 2
 286 176 254.18359375 152 222.21875 152 c 2
 158 152 l 2
 126.03515625 152 126.046875 152 126 120 c 2
 126 -56 l 1
 30 -56 l 1
 30 182 l 2
 30 216 62 248 94 248 c 2
 158 248 l 2
 189.961914062 248 187.609375 248.080078125 190 280 c 1
 189.78125 384 l 1
 189.78125 480 l 1
 189.78125 480.795898438 l 2
 189.78125 503.998046875 189.604492188 504 158.015625 504 c 2
 158 504 l 1
 30 504 l 1
 30 600 l 1
30 -104 m 1
 126 -104 l 1
 126 -200 l 1
 30 -200 l 1
 30 -104 l 1
EndSplineSet
Validated: 1
EndChar

StartChar: at
Encoding: 64 64 33
Width: 460
Flags: HMW
HStem: -200 96<77.8687 157.688 157.676 157.688 157.688 429> -24 96<222.1 286.562 286.56 286.562 286.562 318.562 318.562 318.565 318.565 325.576 286.56 365.281> 280.004 95.9961<297.161 298.086> 504 96<141.595 156.95 156.95 157.688 157.688 301.312 301.312 301.857>
VStem: 30 95.75<-87.999 -72 -72 472> 173.656 96.3438<248 312.1 248 328.083> 333.89 96.1104<82.7812 95.0781>
LayerCount: 2
Fore
SplineSet
93.84375 600 m 2
 365.15625 600 l 2
 397.104492188 600 430 568 430 536 c 2
 430 40 l 2
 430 8 398.002929688 -24 365.28125 -24 c 2
 238.0625 -24 l 2
 206.137695312 -24 174.21875 8 174.21875 40 c 2
 173.65625 312 l 1
 173.65625 312.099609375 l 2
 173.65625 344.06640625 206.033203125 376 237.5 376 c 2
 333.21875 376 l 1
 333.21875 472 l 1
 330.951171875 503.740234375 333.744140625 504 301.857421875 504 c 2
 301.3125 504 l 1
 157.6875 504 l 1
 156.950195312 504 l 2
 126.240234375 504 125.749023438 503.76953125 125.749023438 474.946289062 c 0
 125.749023438 473.99609375 125.75 473.013671875 125.75 472 c 2
 125.75 -72 l 2
 125.75 -103.998046875 125.97265625 -104 157.67578125 -104 c 2
 157.6875 -104 l 1
 430 -104 l 1
 429 -200 l 1
 93.84375 -200 l 2
 61.8935546875 -200 30 -168 30 -136 c 2
 30 536 l 2
 30 568 61.8935546875 600 93.84375 600 c 2
295.65625 280 m 0
 271.715820312 279.895507812 269.961914062 278.36328125 269.961914062 256.30859375 c 0
 269.961914062 253.811523438 269.984375 251.05078125 270 248 c 2
 270.5625 104 l 2
 270.690429688 72.0009765625 270.5625 72 286.559570312 72 c 2
 286.5625 72 l 1
 318.5625 72 l 1
 318.565429688 72 l 2
 332.586914062 72 333.889648438 72.0009765625 333.889648438 93.5615234375 c 0
 333.889648438 96.5947265625 333.86328125 100.053710938 333.84375 104 c 2
 333.28125 248 l 2
 333.154296875 279.75390625 333.797851562 280 302.081054688 280 c 2
 301.34375 280 l 2
 299.991210938 280 298.703125 280.00390625 297.469726562 280.00390625 c 0
 296.852539062 280.00390625 296.248046875 280.002929688 295.65625 280 c 0
EndSplineSet
Validated: 1
EndChar

StartChar: A
Encoding: 65 65 34
Width: 444
Flags: HMW
HStem: -200 21G<30 126 30 30 318 414 318 318> -200 21G<30 126 30 30 318 414 318 318> 40 80<177 267 177 279.5 164.5 267> 580 20G<174 270 270 270> 580 20G<174 270 270 270>
LayerCount: 2
Fore
SplineSet
174 600 m 1xb0
 270 600 l 1
 414 -200 l 1
 318 -200 l 1
 279.5 40 l 1
 164.5 40 l 1
 126 -200 l 1
 30 -200 l 1
 174 600 l 1xb0
222 368 m 1
 177 120 l 1
 267 120 l 1
 222 368 l 1
EndSplineSet
Validated: 1
EndChar

StartChar: B
Encoding: 66 66 35
Width: 380
Flags: HMW
HStem: -200 96 152.003 95.9965 504.003 95.9965
VStem: 30 95.9688<-88.6685 -73.3359 -73.3359 -72.001 -72.001 118.999 118.999 120.866 264.686 281 281 472> 253.938 96.0625<-72.001 120.999 120.999 136.499 279 472 472 488>
LayerCount: 2
Fore
SplineSet
30 600 m 1
 286.03125 600 l 2
 318.024414062 600 350 568 350 536 c 2
 350 248 l 1
 286 184 l 1
 350 152 l 1
 350 -136 l 2
 350 -168 317.930664062 -200 285.9375 -200 c 2
 30 -200 l 1
 30 600 l 1
152.28125 504 m 0
 128.220703125 503.89453125 125.913085938 502.345703125 125.913085938 479.907226562 c 0
 125.913085938 477.516601562 125.939453125 474.888671875 125.96875 472 c 2
 125.96875 281 l 2
 125.96875 248.37109375 125.975585938 248 157.96875 248 c 2
 221.71875 248 l 2
 253.62890625 248 253.9375 248 253.9375 279 c 2
 253.9375 472 l 2
 253.9375 504 253.930664062 504 221.9375 504 c 2
 157.96875 504 l 2
 156.622070312 504 155.33203125 504.00390625 154.095703125 504.00390625 c 0
 153.477539062 504.00390625 152.873046875 504.002929688 152.28125 504 c 0
152.28125 151.999023438 m 0
 126.235351562 151.880859375 125.96875 150.016601562 125.96875 120.866210938 c 0
 125.96875 120.255859375 125.96875 119.633789062 125.96875 118.999023438 c 2
 125.96875 -72.0009765625 l 1
 125.96875 -73.3359375 l 2
 125.96875 -104.000976562 126.192382812 -104.000976562 157.96875 -104.000976562 c 2
 221.9375 -104.000976562 l 2
 253.930664062 -104.000976562 253.9375 -104.000976562 253.9375 -72.0009765625 c 2
 253.9375 120.999023438 l 2
 253.9375 151.999023438 253.711914062 151.999023438 221.71875 151.999023438 c 2
 157.96875 151.999023438 l 2
 156.622070312 151.999023438 155.331054688 152.002929688 154.094726562 152.002929688 c 0
 153.4765625 152.002929688 152.872070312 152.001953125 152.28125 151.999023438 c 0
EndSplineSet
Validated: 1
EndChar

StartChar: C
Encoding: 67 67 36
Width: 348
Flags: HMW
HStem: -200 96 503.906 95.9688
VStem: 30.001 96 222.001 96
LayerCount: 2
Fore
SplineSet
254.000976562 600 m 2
 285.98828125 600 318 567.986328125 318 535.999023438 c 2
 318 439.999023438 l 1
 222 439.999023438 l 1
 222 503.999023438 l 1
 158 503.905273438 l 2
 126 503.905273438 126 503.901367188 126 471.905273438 c 2
 126 -72.0009765625 l 2
 126 -103.700195312 126 -104.000976562 157.107421875 -104.000976562 c 2
 158 -104.000976562 l 1
 222 -104.000976562 l 1
 222 -40.0322265625 l 1
 318 -40.0009765625 l 1
 318 -136.000976562 l 2
 318 -168.000976562 286 -200.000976562 254 -200.000976562 c 2
 94 -200.000976562 l 2
 62 -200 30 -168.000976562 30 -136.000976562 c 2
 30 535.999023438 l 2
 30 567.935546875 61.873046875 599.875 93.8095703125 599.875 c 2
 94.0009765625 599.875 l 1
 254.000976562 600 l 2
EndSplineSet
Validated: 1
EndChar

StartChar: D
Encoding: 68 68 37
Width: 348
Flags: HMW
HStem: -200 96 504.003 95.9965
VStem: 30 95.8438 221.906 96.0938
LayerCount: 2
Fore
SplineSet
30 600 m 1
 253.9375 600 l 2
 285.962890625 600 318 568 318 536 c 2
 318 -136 l 2
 318 -168 285.962890625 -200 253.9375 -200 c 2
 30 -200 l 1
 30 600 l 1
151.84375 504 m 0
 127.36328125 503.896484375 125.811523438 502.44921875 125.811523438 482.112304688 c 0
 125.811523438 479.158203125 125.844726562 475.805664062 125.844726562 472.000976562 c 2
 125.844726562 -71.9990234375 l 2
 125.844726562 -103.998046875 125.848632812 -103.999023438 155.495117188 -103.999023438 c 2
 155.500976562 -103.999023438 l 1
 190.125976562 -103.999023438 l 1
 190.137695312 -103.999023438 l 2
 221.8984375 -103.999023438 221.907226562 -103.997070312 221.907226562 -72.0517578125 c 2
 221.907226562 -71.9990234375 l 1
 221.907226562 472.000976562 l 2
 221.907226562 473.032226562 221.908203125 474.030273438 221.908203125 474.99609375 c 0
 221.908203125 503.76953125 221.408203125 504 190.646484375 504 c 2
 189.907226562 504 l 1
 157.875976562 504 l 2
 156.4453125 504 155.072265625 504.00390625 153.76171875 504.00390625 c 0
 153.106445312 504.00390625 152.466796875 504.002929688 151.84375 504 c 0
EndSplineSet
Validated: 1
EndChar

StartChar: E
Encoding: 69 69 38
Width: 316
Flags: HMW
HStem: -200 96<126 286 126 286> 152 96<126 286 126 286> 504 96<126 286 126 126>
VStem: 30 96<-104 152 248 504> 30 256<-200 -104 152 248 504 600>
CounterMasks: 1 e0
LayerCount: 2
Fore
SplineSet
30 600 m 1xe8
 286 600 l 1
 286 504 l 1xe8
 126 504 l 1
 126 248 l 1xf0
 286 248 l 1
 286 152 l 1xe8
 126 152 l 1
 126 -104 l 1xf0
 286 -104 l 1
 286 -200 l 1
 30 -200 l 1
 30 600 l 1xe8
EndSplineSet
Validated: 1
EndChar

StartChar: F
Encoding: 70 70 39
Width: 316
Flags: HMW
HStem: -200 21G<30 126 30 30> -200 21G<30 126 30 30> 152 96<126 286 126 286> 504 96<126 286 126 126>
VStem: 30 96<-200 152 248 504> 30 256<152 248 504 600>
LayerCount: 2
Fore
SplineSet
30 600 m 1xb4
 286 600 l 1
 286 504 l 1xb4
 126 504 l 1
 126 248 l 1xb8
 286 248 l 1
 286 152 l 1xb4
 126 152 l 1
 126 -200 l 1
 30 -200 l 1xb8
 30 600 l 1xb4
EndSplineSet
Validated: 1
EndChar

StartChar: G
Encoding: 71 71 40
Width: 364
Flags: HMW
HStem: -200 96 152 96 503.906 95.9688
VStem: 30.001 96 174.001 160 238.001 96
LayerCount: 2
Fore
SplineSet
270.000976562 600 m 2xf4
 301.990234375 600 334 567.989257812 334 535.999023438 c 2
 334 439.999023438 l 1
 238 439.999023438 l 1
 238 503.999023438 l 1
 158 503.905273438 l 2
 126 503.905273438 126 503.901367188 126 471.905273438 c 2
 126 -72.0009765625 l 2
 126 -103.700195312 126 -104.000976562 157.107421875 -104.000976562 c 2
 158 -104.000976562 l 1
 238 -104.000976562 l 1
 238 151.967773438 l 1xf4
 174 151.999023438 l 1
 174 247.999023438 l 1
 334 247.999023438 l 1xf8
 334 -136.000976562 l 2
 334 -168.001953125 302 -200.000976562 270 -200.000976562 c 2
 94 -200.000976562 l 2
 62 -200 30 -168.001953125 30 -136.000976562 c 2
 30 535.999023438 l 2
 30 567.936523438 61.873046875 599.875 93.8095703125 599.875 c 2
 94.0009765625 599.875 l 1
 270.000976562 600 l 2xf4
EndSplineSet
Validated: 1
EndChar

StartChar: H
Encoding: 72 72 41
Width: 348
Flags: HMW
HStem: -200 21G<30 126 30 30 222 318 222 222> -200 21G<30 126 30 30 222 318 222 222> 152 96<126 222 126 222> 580 20G<30 126 126 126 222 318 318 318> 580 20G<30 126 126 126 222 318 318 318>
VStem: 30 96<-200 152 248 600> 222 96<-200 152 152 152 248 600 -200 600>
LayerCount: 2
Fore
SplineSet
30 600 m 1xb6
 126 600 l 1
 126 248 l 1
 222 248 l 1
 222 600 l 1
 318 600 l 1
 318 -200 l 1
 222 -200 l 1
 222 152 l 1
 126 152 l 1
 126 -200 l 1
 30 -200 l 1
 30 600 l 1xb6
EndSplineSet
Validated: 1
EndChar

StartChar: I
Encoding: 73 73 42
Width: 156
Flags: HMW
HStem: -200 21G<30 126 30 30> -200 21G<30 126 30 30> 580 20G<30 126 126 126> 580 20G<30 126 126 126>
VStem: 30 96<-200 600 -200 600>
LayerCount: 2
Fore
SplineSet
30 600 m 1xa8
 126 600 l 1
 126 -200 l 1
 30 -200 l 1
 30 600 l 1xa8
EndSplineSet
Validated: 1
EndChar

StartChar: J
Encoding: 74 74 43
Width: 332
Flags: HMW
HStem: -200 96<77.9873 158 157.988 158 158 176.5 176.5 176.506 176.506 191.179 157.988 238> 580 20G<206.001 302 302 302> 580 20G<206.001 302 302 302>
VStem: 30.001 96 206.001 96
LayerCount: 2
Fore
SplineSet
206.000976562 600 m 1xd8
 302 600 l 1
 302 -136 l 2
 302 -168 270 -200 238 -200 c 2
 94 -200 l 2
 61.974609375 -200 30 -168 30 -136 c 2
 30 120 l 1
 126 120 l 1
 126 -72 l 2
 126 -103.998046875 126.208007812 -104 157.98828125 -104 c 2
 158 -104 l 1
 176.5 -104 l 1
 176.505859375 -104 l 2
 205.8515625 -104 206.000976562 -103.999023438 206.000976562 -72.966796875 c 2
 206.000976562 -72 l 1
 206.000976562 600 l 1xd8
EndSplineSet
Validated: 1
EndChar

StartChar: K
Encoding: 75 75 44
Width: 364
VWidth: 800
Flags: W
HStem: -200 21G<30 125.53 237.5 333.528> 152 96<126 214.375> 580 20G<30 126 236.571 334>
VStem: 30 96<-200 152 248 600> 237.5 96<-200 152>
LayerCount: 2
Fore
SplineSet
30 600 m 5
 126 600 l 5
 126 264 l 6
 126 248 126 248 142 248 c 6
 190 248 l 6
 206 248 214 248 214 264 c 5
 238 600 l 5
 334 600 l 5
 302 248 l 5
 270 184 l 5
 334 152 l 5
 333.5 -200 l 5
 237.5 -200 l 5
 238 136 l 6
 238 152 238 152 222 152 c 6
 142 152 l 6
 126 152 126 152 126 136 c 6
 125.5 -200 l 5
 30 -200 l 5
 30 600 l 5
EndSplineSet
EndChar

StartChar: L
Encoding: 76 76 45
Width: 284
Flags: HMW
HStem: -200 96<126 254 126 254> 580 20G<30 126 126 126> 580 20G<30 126 126 126>
VStem: 30 96<-104 600 -104 600 -104 600>
LayerCount: 2
Fore
SplineSet
30 600 m 1xd0
 126 600 l 1
 126 -104 l 1
 254 -104 l 1
 254 -200 l 1
 30 -200 l 1
 30 600 l 1xd0
EndSplineSet
Validated: 1
EndChar

StartChar: M
Encoding: 77 77 46
Width: 412
Flags: HMW
HStem: -200 21G<30 126 30 30 286 382 286 286> -200 21G<30 126 30 30 286 382 286 286> 580 20G<30 94 94 94 318 382 382 382> 580 20G<30 94 94 94 318 382 382 382>
VStem: 30 64<-200 600 600 600> 30 96<-200 264 -200 600> 286 96<-200 264 264 264> 318 64<-200 600>
LayerCount: 2
Fore
SplineSet
30 600 m 1xa8
 94 600 l 1
 206.09375 248 l 1
 318 600 l 1
 382 600 l 1xa9
 382 -200 l 1
 286 -200 l 1
 286 264 l 1
 206 24 l 1
 126 264 l 1
 126 -200 l 1
 30 -200 l 1xa6
 30 600 l 1xa8
EndSplineSet
Validated: 1
EndChar

StartChar: N
Encoding: 78 78 47
Width: 412
Flags: HMW
HStem: -200 21G<30 126.031 30 30 285.969 382 285.969 285.969> -200 21G<30 126.031 30 30 285.969 382 285.969 285.969> 580 20G<30 126.094 126.094 126.094 285.969 382 382 382> 580 20G<30 126.094 126.094 126.094 285.969 382 382 382>
VStem: 30 96.0312<-200 600> 285.969 96.0312<-200 600 56 600 -200 600>
LayerCount: 2
Fore
SplineSet
30 600 m 1xac
 126.09375 600 l 1
 285.96875 56 l 1
 285.96875 600 l 1
 382 600 l 1
 382 -200 l 1
 285.96875 -200 l 1
 125.6875 344 l 1
 126.03125 -200 l 1
 30 -200 l 1
 30 600 l 1xac
EndSplineSet
Validated: 1
EndChar

StartChar: O
Encoding: 79 79 48
Width: 348
Flags: HMW
HStem: -200 96 504.003 95.9965
VStem: 30 96<-88.0103 -72.0234 -72.0234 -71.998 -71.998 472.002> 222 96<-72.0811 -71.999 -71.999 472.001 472.001 474.861 474.399 489.315>
LayerCount: 2
Fore
SplineSet
94 600 m 2
 254 600 l 2
 286 600 318 568 318 536 c 2
 318 -136 l 2
 318 -168 286 -200 254 -200 c 2
 94 -200 l 2
 62 -200 30 -168 30 -136 c 2
 30 536 l 2
 30 568 62 600 94 600 c 2
152 504 m 0
 127.506835938 503.896484375 125.967773438 502.446289062 125.967773438 482.030273438 c 0
 125.967773438 479.096679688 126 475.771484375 126 472.001953125 c 2
 126 -71.998046875 l 1
 126 -72.0234375 l 2
 126 -103.997070312 126.00390625 -103.998046875 155.619140625 -103.998046875 c 2
 155.625 -103.998046875 l 1
 190.25 -103.998046875 l 1
 190.26171875 -103.998046875 l 2
 221.986328125 -103.998046875 222 -103.99609375 222 -72.0810546875 c 2
 222 -71.9990234375 l 1
 222 472.000976562 l 2
 222 472.984375 222 473.9375 222 474.861328125 c 0
 222 503.768554688 221.5234375 504 190.73828125 504 c 2
 189.999023438 504 l 1
 157.999023438 504 l 2
 156.5703125 504 155.209960938 504.00390625 153.908203125 504.00390625 c 0
 153.2578125 504.00390625 152.622070312 504.002929688 152 504 c 0
EndSplineSet
Validated: 1
EndChar

StartChar: P
Encoding: 80 80 49
Width: 380
Flags: HMW
HStem: -200 21G<30 125.719 30 30> -200 21G<30 125.719 30 30> 152 96<157.937 239.905 157.937 286 126 239.905> 504.23 95.7702
VStem: 30 95.9375 253.875 96.125
LayerCount: 2
Fore
SplineSet
30 600 m 1xbc
 286.03125 600 l 2
 318.015625 600 350 568 350 536 c 2
 350 216 l 2
 350 184 318 152 286 152 c 2
 126 152 l 1
 125.71875 -200 l 1
 30 -200 l 1
 30 600 l 1xbc
143.53125 504.21875 m 0
 142.258789062 504.1953125 141.060546875 504.125 139.936523438 504 c 0
 126.455078125 502.5 125.936523438 496 125.936523438 472 c 2
 125.936523438 281 l 2
 125.936523438 248.37109375 125.952148438 248 157.936523438 248 c 2
 239.905273438 248 l 1
 253.38671875 249.4296875 253.874023438 256.119140625 253.874023438 279 c 2
 253.874023438 472 l 1
 253.874023438 472.09375 l 2
 253.874023438 504 253.858398438 504 221.905273438 504 c 2
 157.936523438 504 l 2
 152.591796875 504 148.361328125 504.229492188 144.80078125 504.229492188 c 0
 144.368164062 504.229492188 143.9453125 504.2265625 143.53125 504.21875 c 0
EndSplineSet
Validated: 1
EndChar

StartChar: Q
Encoding: 81 81 50
Width: 364
Flags: HMW
HStem: -200 96 40 96 504.003 95.9965
VStem: 30 96<-87.998 -71.999 -71.999 472.001> 190 144<40.001 136.001 136.001 136.001> 238 96<-71.999 40.001 40.001 40.001 136.001 472.001 472.001 472.517>
LayerCount: 2
Fore
SplineSet
94 600 m 2xf4
 206 600 l 1
 270 600 l 2
 302.025390625 600 334 568 334 536 c 2
 334 -136 l 2
 334 -168 302.025390625 -200 270 -200 c 2
 206 -200 l 1
 94 -200 l 2
 61.974609375 -200 30 -168 30 -136 c 2
 30 536 l 2
 30 568 61.974609375 600 94 600 c 2xf4
152.28125 504 m 0
 126.442382812 503.887695312 125.999023438 502.125976562 125.999023438 474.986328125 c 0
 125.999023438 474.0234375 126 473.028320312 126 472.000976562 c 2
 126 -71.9990234375 l 2
 126 -103.997070312 126.209960938 -103.999023438 157.98828125 -103.999023438 c 2
 158 -103.999023438 l 1
 206 -103.999023438 l 1
 206.01171875 -103.999023438 l 2
 237.791992188 -103.999023438 238 -103.997070312 238 -71.9990234375 c 2
 238 40.0009765625 l 1xf4
 190 40.0009765625 l 1
 190 136.000976562 l 1xf8
 238 136.000976562 l 1
 238 472.000976562 l 2
 238 473.032226562 238.000976562 474.030273438 238.000976562 474.99609375 c 0
 238.000976562 503.76953125 237.500976562 504 206.739257812 504 c 2
 206 504 l 1
 158 504 l 2
 156.643554688 504 155.346679688 504.00390625 154.104492188 504.00390625 c 0
 153.483398438 504.00390625 152.875976562 504.002929688 152.28125 504 c 0
EndSplineSet
Validated: 1
EndChar

StartChar: R
Encoding: 82 82 51
Width: 380
Flags: HMW
HStem: -200 21G<30 125.719 30 30 253.656 349.594 253.656 253.656> -200 21G<30 125.719 30 30 253.656 349.594 253.656 253.656> 152 96<157.938 158.031 158.031 221.75> 504.229 95.7705<144.585 146.582>
VStem: 30 95.9766<125.912 139.572 125.912 600> 253.656 95.9375<-200 -200>
LayerCount: 2
Fore
SplineSet
30 600 m 1xbc
 286.03125 600 l 2
 318.015625 600 350 568 350 536 c 2
 349.6875 248 l 1
 285.71875 184 l 1
 349.90625 152 l 1
 349.59375 -200 l 1
 253.65625 -200 l 1
 253.96875 121 l 2
 253.969726562 121.779296875 253.970703125 122.5390625 253.970703125 123.279296875 c 0
 253.970703125 152 252.930664062 152 221.75 152 c 2
 158.03125 152 l 2
 128.639648438 152 125.9765625 152 125.9765625 127.143554688 c 0
 125.9765625 124.680664062 126.001953125 121.974609375 126.03125 119 c 2
 125.71875 -200 l 1
 30 -200 l 1
 30 600 l 1xbc
143.53125 504.21875 m 0
 142.258789062 504.1953125 141.061523438 504.125 139.9375 504 c 0
 126.456054688 502.5 125.9375 496 125.9375 472 c 2
 125.9375 281 l 2
 125.9375 248.37109375 125.953125 248 157.9375 248 c 2
 239.90625 248 l 1
 253.387695312 249.4296875 253.875 256.119140625 253.875 279 c 2
 253.875 472 l 1
 253.875 472.09375 l 2
 253.875 504 253.859375 504 221.90625 504 c 2
 157.9375 504 l 2
 152.592773438 504 148.362304688 504.229492188 144.801757812 504.229492188 c 0
 144.368164062 504.229492188 143.9453125 504.2265625 143.53125 504.21875 c 0
EndSplineSet
Validated: 1
EndChar

StartChar: S
Encoding: 83 83 52
Width: 348
Flags: HMW
HStem: -200 96<77.9551 190.156 159.25 190.156 190.156 206.139 159.25 253.75> 152 96<77.9551 253.75 158.188 190.156 190.156 190.162> 504 96<142.207 158.188 158.188 190>
VStem: 30 96.2188<-152 -40 264 280 280 376 376 472> 222.125 95.5625<-72 -40 -40 56 56 120 120 136>
CounterMasks: 1 e0
LayerCount: 2
Fore
SplineSet
93.9375 600 m 2
 253.75 600 l 2
 285.71484375 600 317.6875 568 317.6875 536 c 2
 318 440 l 1
 222.09375 440 l 1
 222.09375 472.25 l 2
 221.98828125 504 222 504 190 504 c 2
 158.1875 504 l 2
 126.225585938 504 126.21875 504 126.21875 472 c 2
 126.21875 376 l 1
 126.21875 280 l 2
 126.21875 248 126.225585938 248 158.1875 248 c 2
 253.75 248 l 2
 285.71484375 248 317.6875 216 317.6875 184 c 2
 317.6875 -136 l 2
 317.6875 -168 285.71484375 -200 253.75 -200 c 2
 93.9375 -200 l 2
 61.97265625 -200 30 -168 30 -136 c 2
 30.3125 -40 l 1
 126.21875 -40 l 1
 126 -72 l 2
 126 -104 126 -103.999023438 159.25 -104 c 2
 190.15625 -104 l 2
 222.12109375 -104 222.125 -104 222.125 -72 c 2
 222.125 -40 l 1
 222.125 56 l 1
 222.125 120 l 2
 222.125 151.999023438 222.12109375 152 190.162109375 152 c 2
 190.15625 152 l 1
 93.9375 152 l 2
 61.97265625 152 30 184 30 216 c 2
 30 536 l 2
 30 568 61.97265625 600 93.9375 600 c 2
EndSplineSet
Validated: 1
EndChar

StartChar: T
Encoding: 84 84 53
Width: 345
Flags: HMW
HStem: -200.031 21G<125 220 125 125> -200.031 21G<125 220 125 125> 505 95<30 125 30 315 220 315 220 220>
VStem: 125 95<-200.031 505 -200.031 505>
LayerCount: 2
Fore
SplineSet
30 600 m 1xb0
 315 600 l 1
 315 505 l 1
 220 505 l 1
 220 -200.03125 l 1
 125 -200.03125 l 1
 125 505 l 1
 30 505 l 1
 30 600 l 1xb0
EndSplineSet
Validated: 1
EndChar

StartChar: U
Encoding: 85 85 54
Width: 348
Flags: HMW
HStem: -200 96<77.9873 158 157.988 158 158 190 190 190.012 190.012 205.902 157.988 254> 580 20G<30 126 126 126 222 318 318 318> 580 20G<30 126 126 126 222 318 318 318>
VStem: 30 96<-87.999 -72 -72 600> 222 96<-72 600>
LayerCount: 2
Fore
SplineSet
30 600 m 1xd8
 126 600 l 1
 126 -72 l 2
 126 -103.998046875 126.209960938 -104 157.98828125 -104 c 2
 158 -104 l 1
 190 -104 l 1
 190.01171875 -104 l 2
 221.791992188 -104 222 -103.998046875 222 -72 c 2
 222 600 l 1
 318 600 l 1
 318 -136 l 2
 318 -168 286.025390625 -200 254 -200 c 2
 190 -200 l 1
 94 -200 l 2
 61.974609375 -200 30 -168 30 -136 c 2
 30 600 l 1xd8
EndSplineSet
Validated: 1
EndChar

StartChar: V
Encoding: 86 86 55
Width: 444
Flags: HMW
HStem: -200 21G<174 270 174 174> -200 21G<174 270 174 174> 580 20G<30 126 126 126 318 414 414 414> 580 20G<30 126 126 126 318 414 414 414>
VStem: 30 96<600 600> 318 96<600 600>
LayerCount: 2
Fore
SplineSet
30 600 m 1xac
 126 600 l 1
 222 0 l 1
 318 600 l 1
 414 600 l 1
 270 -200 l 1
 174 -200 l 1
 30 600 l 1xac
EndSplineSet
Validated: 1
EndChar

StartChar: W
Encoding: 87 87 56
Width: 412
Flags: HMW
HStem: -200 21G<30 94 30 30 318 382 318 318> -200 21G<30 94 30 30 318 382 318 318> 580 20G<30 126 126 126 286 382 382 382> 580 20G<30 126 126 126 286 382 382 382>
VStem: 30 64<-200 600> 30 96<136 600 136 600 136 600> 286 96<136 600 -200 600> 318 64<-200 600>
LayerCount: 2
Fore
SplineSet
30 600 m 1xa4
 126 600 l 1
 126 136 l 1
 206 376 l 1
 286 136 l 1
 286 600 l 1
 382 600 l 1xa6
 382 -200 l 1
 318 -200 l 1
 206.09375 152 l 1
 94 -200 l 1
 30 -200 l 1xa9
 30 600 l 1xa4
EndSplineSet
Validated: 1
EndChar

StartChar: X
Encoding: 88 88 57
Width: 412
Flags: HMW
HStem: -200 21G<30 126 30 30 286 382 286 286> -200 21G<30 126 30 30 286 382 286 286> 580 20G<30 126 126 126 286 382 382 382> 580 20G<30 126 126 126 286 382 382 382>
LayerCount: 2
Fore
SplineSet
30 600 m 1x60
 126 600 l 1
 206 264 l 1
 286 600 l 1x60
 382 600 l 1
 286 184 l 1
 382 -200 l 1
 286 -200 l 1
 206 88 l 1
 126 -200 l 1x90
 30 -200 l 1
 126 184 l 1
 30 600 l 1x60
EndSplineSet
Validated: 1
EndChar

StartChar: Y
Encoding: 89 89 58
Width: 444
Flags: HMW
HStem: -200 21G<174 270 174 174> -200 21G<174 270 174 174> 580 20G<30 126 126 126 318 414 414 414> 580 20G<30 126 126 126 318 414 414 414>
VStem: 174 96<-200 56 56 120 -200 120>
LayerCount: 2
Fore
SplineSet
30 600 m 1xa8
 126 600 l 1
 222 248 l 1
 318 600 l 1
 414 600 l 1
 270 120 l 1
 270 56 l 1
 270 -200 l 1
 174 -200 l 1
 174 56 l 1
 174 120 l 1
 30 600 l 1xa8
EndSplineSet
Validated: 1
EndChar

StartChar: Z
Encoding: 90 90 59
Width: 348
Flags: HMW
HStem: -200 96<30 318 149 318 149 318> 504 96<30 199 30 222>
VStem: 30 288<-200 -104>
LayerCount: 2
Fore
SplineSet
30 600 m 1
 222 600 l 1
 318 600 l 1
 149 -104 l 1
 318 -104 l 1
 318 -200 l 1
 126 -200 l 1
 30 -200 l 1
 199 504 l 1
 30 504 l 1
 30 600 l 1
EndSplineSet
Validated: 1
EndChar

StartChar: bracketleft
Encoding: 91 91 60
Width: 252
Flags: HMW
HStem: -200 96<126 222 126 222> 504 96<126 222 126 126>
VStem: 30 96<-104 504 -104 600> 30 192<-200 -104 504 600>
LayerCount: 2
Fore
SplineSet
30 600 m 1xd0
 222 600 l 1
 222 504 l 1xd0
 126 504 l 1
 126 -104 l 1xe0
 222 -104 l 1
 222 -200 l 1
 30 -200 l 1
 30 600 l 1xd0
EndSplineSet
Validated: 1
EndChar

StartChar: backslash
Encoding: 92 92 61
Width: 332
Flags: HMW
HStem: -200 21G<206 302 206 206> -200 21G<206 302 206 206> 580 20G<30 126 126 126> 580 20G<30 126 126 126>
VStem: 30 272
LayerCount: 2
Fore
SplineSet
30 600 m 1xa8
 126 600 l 1
 302 -200 l 1
 206 -200 l 1
 30 600 l 1xa8
EndSplineSet
Validated: 1
EndChar

StartChar: bracketright
Encoding: 93 93 62
Width: 251
Flags: HMW
HStem: -200 96<30 125.999 30 221.999 30 125.999> 504 96<30 125.999 30 221.999>
VStem: 30 191.999<-200 -104 -104 -104 504 600 -200 600> 125.999 96<-104 504 504 504>
LayerCount: 2
Fore
SplineSet
221.999023438 600 m 1xe0
 221.999023438 -200 l 1
 30 -200 l 1
 30 -104 l 1xe0
 125.999023438 -104 l 1
 125.999023438 504 l 1xd0
 30 504 l 1
 30 600 l 1
 221.999023438 600 l 1xe0
EndSplineSet
Validated: 1
EndChar

StartChar: asciicircum
Encoding: 94 94 63
Width: 385
Flags: HMW
HStem: 388 212<30 230 30 230 155 355 155 280>
VStem: 30 325<388 388>
LayerCount: 2
Fore
SplineSet
155 600 m 1
 230 600 l 1
 355 388 l 1
 280 388 l 1
 192 525 l 1
 105 388 l 1
 30 388 l 1
 155 600 l 1
EndSplineSet
Validated: 1
EndChar

StartChar: underscore
Encoding: 95 95 64
Width: 460
Flags: HMW
HStem: -200 96<30 430 30 430>
LayerCount: 2
Fore
SplineSet
30 -104 m 1
 430 -104 l 1
 430 -200 l 1
 30 -200 l 1
 30 -104 l 1
EndSplineSet
Validated: 1
EndChar

StartChar: grave
Encoding: 96 96 65
Width: 204
Flags: HMW
HStem: 424 176<78 126 30 174 78 78>
VStem: 30 144
LayerCount: 2
Fore
SplineSet
30 600 m 1
 126 600 l 1
 174 424 l 1
 78 424 l 1
 30 600 l 1
EndSplineSet
Validated: 1
EndChar

StartChar: a
Encoding: 97 97 66
Width: 444
Flags: HMW
HStem: -200 21G<30 126 30 30 318 414 318 318> -200 21G<30 126 30 30 318 414 318 318> 40 80<177 267 177 279.5 164.5 267> 580 20G<174 270 270 270> 580 20G<174 270 270 270>
LayerCount: 2
Fore
SplineSet
174 600 m 1xb0
 270 600 l 1
 414 -200 l 1
 318 -200 l 1
 279.5 40 l 1
 164.5 40 l 1
 126 -200 l 1
 30 -200 l 1
 174 600 l 1xb0
222 368 m 1
 177 120 l 1
 267 120 l 1
 222 368 l 1
EndSplineSet
Validated: 1
EndChar

StartChar: b
Encoding: 98 98 67
Width: 380
Flags: HMW
HStem: -200 96 152.003 95.9965 504.003 95.9965
VStem: 30 95.9688<-88.6685 -73.3359 -73.3359 -72.001 -72.001 118.999 118.999 120.866 264.686 281 281 472> 253.938 96.0625<-72.001 120.999 120.999 136.499 279 472 472 488>
LayerCount: 2
Fore
SplineSet
30 600 m 1
 286.03125 600 l 2
 318.024414062 600 350 568 350 536 c 2
 350 248 l 1
 286 184 l 1
 350 152 l 1
 350 -136 l 2
 350 -168 317.930664062 -200 285.9375 -200 c 2
 30 -200 l 1
 30 600 l 1
152.28125 504 m 0
 128.220703125 503.89453125 125.913085938 502.345703125 125.913085938 479.907226562 c 0
 125.913085938 477.516601562 125.939453125 474.888671875 125.96875 472 c 2
 125.96875 281 l 2
 125.96875 248.37109375 125.975585938 248 157.96875 248 c 2
 221.71875 248 l 2
 253.62890625 248 253.9375 248 253.9375 279 c 2
 253.9375 472 l 2
 253.9375 504 253.930664062 504 221.9375 504 c 2
 157.96875 504 l 2
 156.622070312 504 155.33203125 504.00390625 154.095703125 504.00390625 c 0
 153.477539062 504.00390625 152.873046875 504.002929688 152.28125 504 c 0
152.28125 151.999023438 m 0
 126.235351562 151.880859375 125.96875 150.016601562 125.96875 120.866210938 c 0
 125.96875 120.255859375 125.96875 119.633789062 125.96875 118.999023438 c 2
 125.96875 -72.0009765625 l 1
 125.96875 -73.3359375 l 2
 125.96875 -104.000976562 126.192382812 -104.000976562 157.96875 -104.000976562 c 2
 221.9375 -104.000976562 l 2
 253.930664062 -104.000976562 253.9375 -104.000976562 253.9375 -72.0009765625 c 2
 253.9375 120.999023438 l 2
 253.9375 151.999023438 253.711914062 151.999023438 221.71875 151.999023438 c 2
 157.96875 151.999023438 l 2
 156.622070312 151.999023438 155.331054688 152.002929688 154.094726562 152.002929688 c 0
 153.4765625 152.002929688 152.872070312 152.001953125 152.28125 151.999023438 c 0
EndSplineSet
Validated: 1
EndChar

StartChar: c
Encoding: 99 99 68
Width: 348
Flags: HMW
HStem: -200 96 503.906 95.9688
VStem: 30.001 96 222.001 96
LayerCount: 2
Fore
SplineSet
254.000976562 600 m 2
 285.98828125 600 318 567.986328125 318 535.999023438 c 2
 318 439.999023438 l 1
 222 439.999023438 l 1
 222 503.999023438 l 1
 158 503.905273438 l 2
 126 503.905273438 126 503.901367188 126 471.905273438 c 2
 126 -72.0009765625 l 2
 126 -103.700195312 126 -104.000976562 157.107421875 -104.000976562 c 2
 158 -104.000976562 l 1
 222 -104.000976562 l 1
 222 -40.0322265625 l 1
 318 -40.0009765625 l 1
 318 -136.000976562 l 2
 318 -168.000976562 286 -200.000976562 254 -200.000976562 c 2
 94 -200.000976562 l 2
 62 -200 30 -168.000976562 30 -136.000976562 c 2
 30 535.999023438 l 2
 30 567.935546875 61.873046875 599.875 93.8095703125 599.875 c 2
 94.0009765625 599.875 l 1
 254.000976562 600 l 2
EndSplineSet
Validated: 1
EndChar

StartChar: d
Encoding: 100 100 69
Width: 348
Flags: HMW
HStem: -200 96 504.003 95.9965
VStem: 30 95.8438 221.906 96.0938
LayerCount: 2
Fore
SplineSet
30 600 m 1
 253.9375 600 l 2
 285.962890625 600 318 568 318 536 c 2
 318 -136 l 2
 318 -168 285.962890625 -200 253.9375 -200 c 2
 30 -200 l 1
 30 600 l 1
151.84375 504 m 0
 127.36328125 503.896484375 125.811523438 502.44921875 125.811523438 482.112304688 c 0
 125.811523438 479.158203125 125.844726562 475.805664062 125.844726562 472.000976562 c 2
 125.844726562 -71.9990234375 l 2
 125.844726562 -103.998046875 125.848632812 -103.999023438 155.495117188 -103.999023438 c 2
 155.500976562 -103.999023438 l 1
 190.125976562 -103.999023438 l 1
 190.137695312 -103.999023438 l 2
 221.8984375 -103.999023438 221.907226562 -103.997070312 221.907226562 -72.0517578125 c 2
 221.907226562 -71.9990234375 l 1
 221.907226562 472.000976562 l 2
 221.907226562 473.032226562 221.908203125 474.030273438 221.908203125 474.99609375 c 0
 221.908203125 503.76953125 221.408203125 504 190.646484375 504 c 2
 189.907226562 504 l 1
 157.875976562 504 l 2
 156.4453125 504 155.072265625 504.00390625 153.76171875 504.00390625 c 0
 153.106445312 504.00390625 152.466796875 504.002929688 151.84375 504 c 0
EndSplineSet
Validated: 1
EndChar

StartChar: e
Encoding: 101 101 70
Width: 316
Flags: HMW
HStem: -200 96<126 286 126 286> 152 96<126 286 126 286> 504 96<126 286 126 126>
VStem: 30 96<-104 152 248 504> 30 256<-200 -104 152 248 504 600>
CounterMasks: 1 e0
LayerCount: 2
Fore
SplineSet
30 600 m 1xe8
 286 600 l 1
 286 504 l 1xe8
 126 504 l 1
 126 248 l 1xf0
 286 248 l 1
 286 152 l 1xe8
 126 152 l 1
 126 -104 l 1xf0
 286 -104 l 1
 286 -200 l 1
 30 -200 l 1
 30 600 l 1xe8
EndSplineSet
Validated: 1
EndChar

StartChar: f
Encoding: 102 102 71
Width: 316
Flags: HMW
HStem: -200 21G<30 126 30 30> -200 21G<30 126 30 30> 152 96<126 286 126 286> 504 96<126 286 126 126>
VStem: 30 96<-200 152 248 504> 30 256<152 248 504 600>
LayerCount: 2
Fore
SplineSet
30 600 m 1xb4
 286 600 l 1
 286 504 l 1xb4
 126 504 l 1
 126 248 l 1xb8
 286 248 l 1
 286 152 l 1xb4
 126 152 l 1
 126 -200 l 1
 30 -200 l 1xb8
 30 600 l 1xb4
EndSplineSet
Validated: 1
EndChar

StartChar: g
Encoding: 103 103 72
Width: 364
Flags: HMW
HStem: -200 96 152 96 503.906 95.9688
VStem: 30.001 96 174.001 160 238.001 96
LayerCount: 2
Fore
SplineSet
270.000976562 600 m 2xf4
 301.990234375 600 334 567.989257812 334 535.999023438 c 2
 334 439.999023438 l 1
 238 439.999023438 l 1
 238 503.999023438 l 1
 158 503.905273438 l 2
 126 503.905273438 126 503.901367188 126 471.905273438 c 2
 126 -72.0009765625 l 2
 126 -103.700195312 126 -104.000976562 157.107421875 -104.000976562 c 2
 158 -104.000976562 l 1
 238 -104.000976562 l 1
 238 151.967773438 l 1xf4
 174 151.999023438 l 1
 174 247.999023438 l 1
 334 247.999023438 l 1xf8
 334 -136.000976562 l 2
 334 -168.001953125 302 -200.000976562 270 -200.000976562 c 2
 94 -200.000976562 l 2
 62 -200 30 -168.001953125 30 -136.000976562 c 2
 30 535.999023438 l 2
 30 567.936523438 61.873046875 599.875 93.8095703125 599.875 c 2
 94.0009765625 599.875 l 1
 270.000976562 600 l 2xf4
EndSplineSet
Validated: 1
EndChar

StartChar: h
Encoding: 104 104 73
Width: 348
Flags: HMW
HStem: -200 21G<30 126 30 30 222 318 222 222> -200 21G<30 126 30 30 222 318 222 222> 152 96<126 222 126 222> 580 20G<30 126 126 126 222 318 318 318> 580 20G<30 126 126 126 222 318 318 318>
VStem: 30 96<-200 152 248 600> 222 96<-200 152 152 152 248 600 -200 600>
LayerCount: 2
Fore
SplineSet
30 600 m 1xb6
 126 600 l 1
 126 248 l 1
 222 248 l 1
 222 600 l 1
 318 600 l 1
 318 -200 l 1
 222 -200 l 1
 222 152 l 1
 126 152 l 1
 126 -200 l 1
 30 -200 l 1
 30 600 l 1xb6
EndSplineSet
Validated: 1
EndChar

StartChar: i
Encoding: 105 105 74
Width: 156
Flags: HMW
HStem: -200 21G<30 126 30 30> -200 21G<30 126 30 30> 580 20G<30 126 126 126> 580 20G<30 126 126 126>
VStem: 30 96<-200 600 -200 600>
LayerCount: 2
Fore
SplineSet
30 600 m 1xa8
 126 600 l 1
 126 -200 l 1
 30 -200 l 1
 30 600 l 1xa8
EndSplineSet
Validated: 1
EndChar

StartChar: j
Encoding: 106 106 75
Width: 332
Flags: HMW
HStem: -200 96<77.9873 158 157.988 158 158 176.5 176.5 176.506 176.506 191.179 157.988 238> 580 20G<206.001 302 302 302> 580 20G<206.001 302 302 302>
VStem: 30.001 96 206.001 96
LayerCount: 2
Fore
SplineSet
206.000976562 600 m 1xd8
 302 600 l 1
 302 -136 l 2
 302 -168 270 -200 238 -200 c 2
 94 -200 l 2
 61.974609375 -200 30 -168 30 -136 c 2
 30 120 l 1
 126 120 l 1
 126 -72 l 2
 126 -103.998046875 126.208007812 -104 157.98828125 -104 c 2
 158 -104 l 1
 176.5 -104 l 1
 176.505859375 -104 l 2
 205.8515625 -104 206.000976562 -103.999023438 206.000976562 -72.966796875 c 2
 206.000976562 -72 l 1
 206.000976562 600 l 1xd8
EndSplineSet
Validated: 1
EndChar

StartChar: k
Encoding: 107 107 76
Width: 364
VWidth: 800
Flags: MW
HStem: -200 21G<30 125.53 237.5 333.528> 152 96<126 214.375> 580 20G<30 126 236.571 334>
VStem: 30 96<-200 152 248 600> 237.5 96<-200 152>
LayerCount: 2
Fore
SplineSet
30 600 m 5
 126 600 l 5
 126 264 l 6
 126 248 126 248 142 248 c 6
 190 248 l 6
 206 248 214 248 214 264 c 5
 238 600 l 5
 334 600 l 5
 302 248 l 5
 270 184 l 5
 334 152 l 5
 333.5 -200 l 5
 237.5 -200 l 5
 238 136 l 6
 238 152 238 152 222 152 c 6
 142 152 l 6
 126 152 126 152 126 136 c 6
 125.5 -200 l 5
 30 -200 l 5
 30 600 l 5
EndSplineSet
EndChar

StartChar: l
Encoding: 108 108 77
Width: 284
Flags: HMW
HStem: -200 96<126 254 126 254> 580 20G<30 126 126 126> 580 20G<30 126 126 126>
VStem: 30 96<-104 600 -104 600 -104 600>
LayerCount: 2
Fore
SplineSet
30 600 m 1xd0
 126 600 l 1
 126 -104 l 1
 254 -104 l 1
 254 -200 l 1
 30 -200 l 1
 30 600 l 1xd0
EndSplineSet
Validated: 1
EndChar

StartChar: m
Encoding: 109 109 78
Width: 412
Flags: HMW
HStem: -200 21G<30 126 30 30 286 382 286 286> -200 21G<30 126 30 30 286 382 286 286> 580 20G<30 94 94 94 318 382 382 382> 580 20G<30 94 94 94 318 382 382 382>
VStem: 30 64<-200 600 600 600> 30 96<-200 264 -200 600> 286 96<-200 264 264 264> 318 64<-200 600>
LayerCount: 2
Fore
SplineSet
30 600 m 1xa8
 94 600 l 1
 206.09375 248 l 1
 318 600 l 1
 382 600 l 1xa9
 382 -200 l 1
 286 -200 l 1
 286 264 l 1
 206 24 l 1
 126 264 l 1
 126 -200 l 1
 30 -200 l 1xa6
 30 600 l 1xa8
EndSplineSet
Validated: 1
EndChar

StartChar: n
Encoding: 110 110 79
Width: 412
Flags: HMW
HStem: -200 21G<30 126.031 30 30 285.969 382 285.969 285.969> -200 21G<30 126.031 30 30 285.969 382 285.969 285.969> 580 20G<30 126.094 126.094 126.094 285.969 382 382 382> 580 20G<30 126.094 126.094 126.094 285.969 382 382 382>
VStem: 30 96.0312<-200 600> 285.969 96.0312<-200 600 56 600 -200 600>
LayerCount: 2
Fore
SplineSet
30 600 m 1xac
 126.09375 600 l 1
 285.96875 56 l 1
 285.96875 600 l 1
 382 600 l 1
 382 -200 l 1
 285.96875 -200 l 1
 125.6875 344 l 1
 126.03125 -200 l 1
 30 -200 l 1
 30 600 l 1xac
EndSplineSet
Validated: 1
EndChar

StartChar: o
Encoding: 111 111 80
Width: 348
Flags: HMW
HStem: -200 96<78 155.625 155.619 155.625 155.625 190.25 190.25 190.262 190.262 206.124 155.619 254> 504.004 95.9961<153.584 154.56>
VStem: 30 96<-88.0122 -72.0254 -72.0254 -72 -72 472> 222 96<-72.082 -72 -72 472 472 474.861 474.861 489.315>
LayerCount: 2
Fore
SplineSet
94 600 m 2
 254 600 l 2
 286 600 318 568 318 536 c 2
 318 -136 l 2
 318 -168 286 -200 254 -200 c 2
 94 -200 l 2
 62 -200 30 -168 30 -136 c 2
 30 536 l 2
 30 568 62 600 94 600 c 2
152 504 m 0
 127.506835938 503.896484375 125.967773438 502.444335938 125.967773438 482.028320312 c 0
 125.967773438 479.094726562 126 475.76953125 126 472 c 2
 126 -72 l 1
 126 -72.025390625 l 2
 126 -103.999023438 126.00390625 -104 155.619140625 -104 c 2
 155.625 -104 l 1
 190.25 -104 l 1
 190.26171875 -104 l 2
 221.986328125 -104 222 -103.998046875 222 -72.08203125 c 2
 222 -72 l 1
 222 472 l 1
 222 474.861328125 l 2
 222 503.768554688 221.5234375 504 190.739257812 504 c 2
 190 504 l 1
 158 504 l 2
 156.571289062 504 155.2109375 504.00390625 153.909179688 504.00390625 c 0
 153.258789062 504.00390625 152.622070312 504.002929688 152 504 c 0
EndSplineSet
Validated: 1
EndChar

StartChar: p
Encoding: 112 112 81
Width: 380
Flags: HMW
HStem: -200 21G<30 125.719 30 30> -200 21G<30 125.719 30 30> 152 96<157.937 239.905 157.937 286 126 239.905> 504.23 95.7702
VStem: 30 95.9375 253.875 96.125
LayerCount: 2
Fore
SplineSet
30 600 m 1xbc
 286.03125 600 l 2
 318.015625 600 350 568 350 536 c 2
 350 216 l 2
 350 184 318 152 286 152 c 2
 126 152 l 1
 125.71875 -200 l 1
 30 -200 l 1
 30 600 l 1xbc
143.53125 504.21875 m 0
 142.258789062 504.1953125 141.060546875 504.125 139.936523438 504 c 0
 126.455078125 502.5 125.936523438 496 125.936523438 472 c 2
 125.936523438 281 l 2
 125.936523438 248.37109375 125.952148438 248 157.936523438 248 c 2
 239.905273438 248 l 1
 253.38671875 249.4296875 253.874023438 256.119140625 253.874023438 279 c 2
 253.874023438 472 l 1
 253.874023438 472.09375 l 2
 253.874023438 504 253.858398438 504 221.905273438 504 c 2
 157.936523438 504 l 2
 152.591796875 504 148.361328125 504.229492188 144.80078125 504.229492188 c 0
 144.368164062 504.229492188 143.9453125 504.2265625 143.53125 504.21875 c 0
EndSplineSet
Validated: 1
EndChar

StartChar: q
Encoding: 113 113 82
Width: 364
Flags: HMW
HStem: -200 96 40 96 504.003 95.9965
VStem: 30 96<-87.998 -71.999 -71.999 472.001> 190 144<40.001 136.001 136.001 136.001> 238 96<-71.999 40.001 40.001 40.001 136.001 472.001 472.001 472.517>
LayerCount: 2
Fore
SplineSet
94 600 m 2xf4
 206 600 l 1
 270 600 l 2
 302.025390625 600 334 568 334 536 c 2
 334 -136 l 2
 334 -168 302.025390625 -200 270 -200 c 2
 206 -200 l 1
 94 -200 l 2
 61.974609375 -200 30 -168 30 -136 c 2
 30 536 l 2
 30 568 61.974609375 600 94 600 c 2xf4
152.28125 504 m 0
 126.442382812 503.887695312 125.999023438 502.125976562 125.999023438 474.986328125 c 0
 125.999023438 474.0234375 126 473.028320312 126 472.000976562 c 2
 126 -71.9990234375 l 2
 126 -103.997070312 126.209960938 -103.999023438 157.98828125 -103.999023438 c 2
 158 -103.999023438 l 1
 206 -103.999023438 l 1
 206.01171875 -103.999023438 l 2
 237.791992188 -103.999023438 238 -103.997070312 238 -71.9990234375 c 2
 238 40.0009765625 l 1xf4
 190 40.0009765625 l 1
 190 136.000976562 l 1xf8
 238 136.000976562 l 1
 238 472.000976562 l 2
 238 473.032226562 238.000976562 474.030273438 238.000976562 474.99609375 c 0
 238.000976562 503.76953125 237.500976562 504 206.739257812 504 c 2
 206 504 l 1
 158 504 l 2
 156.643554688 504 155.346679688 504.00390625 154.104492188 504.00390625 c 0
 153.483398438 504.00390625 152.875976562 504.002929688 152.28125 504 c 0
EndSplineSet
Validated: 1
EndChar

StartChar: r
Encoding: 114 114 83
Width: 380
Flags: HMW
HStem: -200 21G<30 126.719 30 30 253.656 349.594 253.656 253.656> -200 21G<30 126.719 30 30 253.656 349.594 253.656 253.656> 152 96<157.937 158.031 158.031 221.75> 504.23 95.7702
VStem: 30 95.9762 253.656 95.9375<-200 -200>
LayerCount: 2
Fore
SplineSet
30 600 m 1xbc
 286.03125 600 l 2
 318.015625 600 350 568 350 536 c 2
 349.6875 248 l 1
 285.71875 184 l 1
 349.90625 152 l 1
 349.59375 -200 l 1
 253.65625 -200 l 1
 253.96875 121 l 2
 253.969726562 121.779296875 253.970703125 122.5390625 253.970703125 123.279296875 c 0
 253.970703125 152 252.930664062 152 221.75 152 c 2
 158.03125 152 l 2
 128.639648438 152 125.9765625 152 125.9765625 127.143554688 c 0
 125.9765625 124.680664062 127.034179688 121.974609375 127.03125 119 c 2
 126.71875 -200 l 1
 30 -200 l 1
 30 600 l 1xbc
143.53125 504.21875 m 0
 142.258789062 504.1953125 141.060546875 504.125 139.936523438 504 c 0
 126.455078125 502.5 125.936523438 496 125.936523438 472 c 2
 125.936523438 281 l 2
 125.936523438 248.37109375 125.952148438 248 157.936523438 248 c 2
 239.905273438 248 l 1
 253.38671875 249.4296875 253.874023438 256.119140625 253.874023438 279 c 2
 253.874023438 472 l 1
 253.874023438 472.09375 l 2
 253.874023438 504 253.858398438 504 221.905273438 504 c 2
 157.936523438 504 l 2
 152.591796875 504 148.361328125 504.229492188 144.80078125 504.229492188 c 0
 144.368164062 504.229492188 143.9453125 504.2265625 143.53125 504.21875 c 0
EndSplineSet
Validated: 1
EndChar

StartChar: s
Encoding: 115 115 84
Width: 348
Flags: HMW
HStem: -200 96<77.9551 190.156 159.25 190.156 190.156 206.139 159.25 253.75> 152 96<77.9551 253.75 158.188 190.156 190.156 190.162> 504 96<142.207 158.188 158.188 190>
VStem: 30 96.2188<-152 -40 264 280 280 376 376 472> 222.125 95.5625<-72 -40 -40 56 56 120 120 136>
CounterMasks: 1 e0
LayerCount: 2
Fore
SplineSet
93.9375 600 m 2
 253.75 600 l 2
 285.71484375 600 317.6875 568 317.6875 536 c 2
 318 440 l 1
 222.09375 440 l 1
 222.09375 472.25 l 2
 221.98828125 504 222 504 190 504 c 2
 158.1875 504 l 2
 126.225585938 504 126.21875 504 126.21875 472 c 2
 126.21875 376 l 1
 126.21875 280 l 2
 126.21875 248 126.225585938 248 158.1875 248 c 2
 253.75 248 l 2
 285.71484375 248 317.6875 216 317.6875 184 c 2
 317.6875 -136 l 2
 317.6875 -168 285.71484375 -200 253.75 -200 c 2
 93.9375 -200 l 2
 61.97265625 -200 30 -168 30 -136 c 2
 30.3125 -40 l 1
 126.21875 -40 l 1
 126 -72 l 2
 126 -104 126 -103.999023438 159.25 -104 c 2
 190.15625 -104 l 2
 222.12109375 -104 222.125 -104 222.125 -72 c 2
 222.125 -40 l 1
 222.125 56 l 1
 222.125 120 l 2
 222.125 151.999023438 222.12109375 152 190.162109375 152 c 2
 190.15625 152 l 1
 93.9375 152 l 2
 61.97265625 152 30 184 30 216 c 2
 30 536 l 2
 30 568 61.97265625 600 93.9375 600 c 2
EndSplineSet
Validated: 1
EndChar

StartChar: t
Encoding: 116 116 85
Width: 345
Flags: HMW
HStem: -200.031 21G<125 220 125 125> -200.031 21G<125 220 125 125> 505 95<30 125 30 315 220 315 220 220>
VStem: 125 95<-200.031 505 -200.031 505>
LayerCount: 2
Fore
SplineSet
30 600 m 1xb0
 315 600 l 1
 315 505 l 1
 220 505 l 1
 220 -200.03125 l 1
 125 -200.03125 l 1
 125 505 l 1
 30 505 l 1
 30 600 l 1xb0
EndSplineSet
Validated: 1
EndChar

StartChar: u
Encoding: 117 117 86
Width: 348
Flags: HMW
HStem: -200 96<77.9873 158 157.988 158 158 190 190 190.012 190.012 205.902 157.988 254> 580 20G<30 126 126 126 222 318 318 318> 580 20G<30 126 126 126 222 318 318 318>
VStem: 30 96<-87.999 -72 -72 600> 222 96<-72 600>
LayerCount: 2
Fore
SplineSet
30 600 m 1xd8
 126 600 l 1
 126 -72 l 2
 126 -103.998046875 126.209960938 -104 157.98828125 -104 c 2
 158 -104 l 1
 190 -104 l 1
 190.01171875 -104 l 2
 221.791992188 -104 222 -103.998046875 222 -72 c 2
 222 600 l 1
 318 600 l 1
 318 -136 l 2
 318 -168 286.025390625 -200 254 -200 c 2
 190 -200 l 1
 94 -200 l 2
 61.974609375 -200 30 -168 30 -136 c 2
 30 600 l 1xd8
EndSplineSet
Validated: 1
EndChar

StartChar: v
Encoding: 118 118 87
Width: 444
Flags: HMW
HStem: -200 21G<174 270 174 174> -200 21G<174 270 174 174> 580 20G<30 126 126 126 318 414 414 414> 580 20G<30 126 126 126 318 414 414 414>
VStem: 30 96<600 600> 318 96<600 600>
LayerCount: 2
Fore
SplineSet
30 600 m 1xac
 126 600 l 1
 222 0 l 1
 318 600 l 1
 414 600 l 1
 270 -200 l 1
 174 -200 l 1
 30 600 l 1xac
EndSplineSet
Validated: 1
EndChar

StartChar: w
Encoding: 119 119 88
Width: 412
Flags: HMW
HStem: -200 21G<30 94 30 30 318 382 318 318> -200 21G<30 94 30 30 318 382 318 318> 580 20G<30 126 126 126 286 382 382 382> 580 20G<30 126 126 126 286 382 382 382>
VStem: 30 64<-200 600> 30 96<136 600 136 600 136 600> 286 96<136 600 -200 600> 318 64<-200 600>
LayerCount: 2
Fore
SplineSet
30 600 m 1xa4
 126 600 l 1
 126 136 l 1
 206 376 l 1
 286 136 l 1
 286 600 l 1
 382 600 l 1xa6
 382 -200 l 1
 318 -200 l 1
 206.09375 152 l 1
 94 -200 l 1
 30 -200 l 1xa9
 30 600 l 1xa4
EndSplineSet
Validated: 1
EndChar

StartChar: x
Encoding: 120 120 89
Width: 412
Flags: HMW
HStem: -200 21G<30 126 30 30 286 382 286 286> -200 21G<30 126 30 30 286 382 286 286> 580 20G<30 126 126 126 286 382 382 382> 580 20G<30 126 126 126 286 382 382 382>
LayerCount: 2
Fore
SplineSet
30 600 m 1x60
 126 600 l 1
 206 264 l 1
 286 600 l 1x60
 382 600 l 1
 286 184 l 1
 382 -200 l 1
 286 -200 l 1
 206 88 l 1
 126 -200 l 1x90
 30 -200 l 1
 126 184 l 1
 30 600 l 1x60
EndSplineSet
Validated: 1
EndChar

StartChar: y
Encoding: 121 121 90
Width: 444
Flags: HMW
HStem: -200 21G<174 270 174 174> -200 21G<174 270 174 174> 580 20G<30 126 126 126 318 414 414 414> 580 20G<30 126 126 126 318 414 414 414>
VStem: 174 96<-200 56 56 120 -200 120>
LayerCount: 2
Fore
SplineSet
30 600 m 1xa8
 126 600 l 1
 222 248 l 1
 318 600 l 1
 414 600 l 1
 270 120 l 1
 270 56 l 1
 270 -200 l 1
 174 -200 l 1
 174 56 l 1
 174 120 l 1
 30 600 l 1xa8
EndSplineSet
Validated: 1
EndChar

StartChar: z
Encoding: 122 122 91
Width: 348
Flags: HMW
HStem: -200 96<30 318 149 318 149 318> 504 96<30 199 30 222>
VStem: 30 288<-200 -104>
LayerCount: 2
Fore
SplineSet
30 600 m 1
 222 600 l 1
 318 600 l 1
 149 -104 l 1
 318 -104 l 1
 318 -200 l 1
 126 -200 l 1
 30 -200 l 1
 199 504 l 1
 30 504 l 1
 30 600 l 1
EndSplineSet
Validated: 1
EndChar

StartChar: braceleft
Encoding: 123 123 92
Width: 252
Flags: HMW
HStem: -200 96<78 222 126 222 126 222> 504 96<126 222 126 126>
VStem: 30 96<-104 152 152 152 248 504 -104 539 -104 539.003 -104 553.502> 30 192<-136 -104 -200 152 504 539 539 539.003 539.003 553.502>
LayerCount: 2
Fore
SplineSet
94 600 m 2xd0
 222 600 l 1
 222 504 l 1xd0
 126 504 l 1
 126 -104 l 1xe0
 222 -104 l 1
 222 -200 l 1
 94 -200 l 2
 62 -200 30 -168 30 -136 c 2xd0
 30 152 l 1
 94 184 l 1
 30 248 l 1xe0
 30 539 l 1
 30 539.002929688 l 2
 30 568.001953125 62.0009765625 600 94 600 c 2xd0
EndSplineSet
Validated: 1
EndChar

StartChar: bar
Encoding: 124 124 93
Width: 156
Flags: HMW
HStem: -200 21G<30 126 30 30> -200 21G<30 126 30 30> 580 20G<30 126 126 126> 580 20G<30 126 126 126>
VStem: 30 96<-200 600 -200 600>
LayerCount: 2
Fore
SplineSet
30 600 m 1xa8
 126 600 l 1
 126 -200 l 1
 30 -200 l 1
 30 600 l 1xa8
EndSplineSet
Validated: 1
EndChar

StartChar: braceright
Encoding: 125 125 94
Width: 252
Flags: HMW
HStem: -200 96<30 126 30 158 30 126> 504 96<30 126 30 158>
VStem: 30 192<-152 -136 -136 -104 -104 -104 504 539 539 539.003> 126 96<-104 152 248 504 504 504>
LayerCount: 2
Fore
SplineSet
30 600 m 1xe0
 158 600 l 2
 189.999023438 600 222 568.001953125 222 539.002929688 c 2
 222 539 l 1xe0
 222 248 l 1
 158 184 l 1
 222 152 l 1xd0
 222 -136 l 2
 222 -168 190 -200 158 -200 c 2
 30 -200 l 1
 30 -104 l 1xe0
 126 -104 l 1
 126 504 l 1xd0
 30 504 l 1
 30 600 l 1xe0
EndSplineSet
Validated: 1
EndChar

StartChar: asciitilde
Encoding: 126 126 95
Width: 412
Flags: HMW
HStem: 156 122<152 260>
LayerCount: 2
Fore
SplineSet
152 278 m 1
 260 237 l 1
 382 264 l 1
 382 183 l 1
 260 156 l 1
 152 197 l 1
 30 156 l 1
 30 237 l 1
 152 278 l 1
EndSplineSet
Validated: 1
EndChar
